<svg xmlns="http://www.w3.org/2000/svg" viewBox="0 0 33.56 33.8"><defs><style>.cls-1{fill:#f8f0e1;}</style></defs><title>btn-icon-armas</title><g id="Capa_2" data-name="Capa 2"><g id="Content"><path class="cls-1" d="M26.94,6.14a.5.5,0,0,0-.58-.06l-4.23,2.4a.49.49,0,0,0-.19.68.51.51,0,0,0,.69.19l3-1.68-.41,1A7.48,7.48,0,0,1,22,12.33l-9,5.1c-3.64,2.06-5.47,3.1-6.49,6.12a4.16,4.16,0,0,0,.83,3.81,3.42,3.42,0,1,1-6.16,2.49A14.33,14.33,0,0,1,1,27.32a.5.5,0,0,0-.48-.52.49.49,0,0,0-.52.47A14.47,14.47,0,0,0,.14,30a4.42,4.42,0,0,0,3,3.59,4.51,4.51,0,0,0,1.4.23,4.43,4.43,0,0,0,3.6-7,3.22,3.22,0,0,1-.7-2.91A6.46,6.46,0,0,1,10,20.41a3.52,3.52,0,0,0,4.54,1,3.53,3.53,0,0,0,1.77-3,2.94,2.94,0,0,1,1.5-2.53l1-.57h0l3.65-2.07a8.51,8.51,0,0,0,3.66-4.15l1-2.34A.49.49,0,0,0,26.94,6.14ZM15.3,18.36A2.54,2.54,0,0,1,14,20.5a2.5,2.5,0,0,1-3.21-.66l1.31-.79.69.86a.5.5,0,1,0,.78-.63L13,18.55l.44-.25,2.06-1.17A3.92,3.92,0,0,0,15.3,18.36Z"/><path class="cls-1" d="M6.2,15.87a.5.5,0,0,0-.71,0A17.93,17.93,0,0,0,.24,25.3a.51.51,0,0,0,.4.59H.73a.51.51,0,0,0,.5-.41,17,17,0,0,1,5-8.9A.5.5,0,0,0,6.2,15.87Z"/><path class="cls-1" d="M33.5,5.27l-2.85-5a.47.47,0,0,0-.3-.23A.46.46,0,0,0,30,.07L27.27,1.6,26.93,1a.49.49,0,0,0-.68-.19.51.51,0,0,0-.19.69l.34.6-1.26.72-7,4a.5.5,0,1,0,.5.87l7-4L30,1.19l1.2,2.12L28.06,5.13a.5.5,0,0,0,.25.94A.47.47,0,0,0,28.56,6l3.16-1.82.65,1.15L27.54,8.09a.51.51,0,0,0-.19.69.52.52,0,0,0,.44.25A.47.47,0,0,0,28,9l5.27-3A.5.5,0,0,0,33.5,5.27Z"/><path class="cls-1" d="M21.19,9.59a.5.5,0,0,0-.68-.19l-9.45,5.35a2.14,2.14,0,0,1-1.86.13,3.08,3.08,0,0,0-1-.23,1.15,1.15,0,0,1,.52-1.35l4.83-2.74a2.22,2.22,0,0,0,1.64.72A2.15,2.15,0,0,0,16.24,11,2.22,2.22,0,1,0,13,8.47a2.29,2.29,0,0,0,0,1.22L8.28,12.38l-3.15.35a.5.5,0,0,0,0,1h.06l2-.23a2.13,2.13,0,0,0,.08,1.76.5.5,0,0,0,.16.28.49.49,0,0,0,.37.12,2.3,2.3,0,0,1,1,.15A3.22,3.22,0,0,0,10,16a3.18,3.18,0,0,0,1.55-.41L21,10.27A.49.49,0,0,0,21.19,9.59ZM14,8.74A1.2,1.2,0,0,1,14.55,8a1.14,1.14,0,0,1,.59-.16,1.21,1.21,0,1,1-1.17.9Z"/><path class="cls-1" d="M6.23,28.26a2,2,0,1,0-2.33,3,2.15,2.15,0,0,0,.55.08,2,2,0,0,0,1-.27,2,2,0,0,0,1-1.23A2.05,2.05,0,0,0,6.23,28.26Zm-.78,1.28a1,1,0,0,1-.49.63,1,1,0,0,1-1.41-.39,1,1,0,0,1,.9-1.55,1.06,1.06,0,0,1,.91.53A1,1,0,0,1,5.45,29.54Z"/></g></g></svg>