<svg xmlns="http://www.w3.org/2000/svg" viewBox="0 0 31.54 31.54"><defs><style>.cls-1{fill:#80a8a3;}.cls-2{fill:#fff;}</style></defs><title>btn-derecha-hover</title><g id="Capa_2" data-name="Capa 2"><g id="Content"><path class="cls-1" d="M0,15.77A15.77,15.77,0,1,1,15.77,31.54,15.77,15.77,0,0,1,0,15.77"/><path class="cls-2" d="M26,15.4,15.67,25.74a.68.68,0,0,1-1-1l9.37-9.37L14.71,6a.68.68,0,0,1,1-1Z"/><path class="cls-2" d="M25.73,15.4a.67.67,0,0,1-.68.68H6.56a.68.68,0,1,1,0-1.36H25.05A.67.67,0,0,1,25.73,15.4Z"/></g></g></svg>