<svg xmlns="http://www.w3.org/2000/svg" viewBox="0 0 21.35 35.8"><defs><style>.cls-1{fill:#f8f0e1;}</style></defs><title>btn-icon-indumentaria</title><g id="Capa_2" data-name="Capa 2"><g id="Content"><path class="cls-1" d="M1.2,22.2a.53.53,0,0,0,.53-.53V16.44A12,12,0,0,0,5,14.91a15.88,15.88,0,0,0,3.85-3.68v2.83a.53.53,0,0,0,1.06,0V5.25a2,2,0,0,0-.64-1.44L7.29,2a2.73,2.73,0,0,0-.47-.35l0,0V.53A.53.53,0,0,0,6.26,0h-2a.53.53,0,0,0-.53.53V1.71A2.3,2.3,0,0,0,3.25,2l0,0A7.78,7.78,0,0,0,.68,7.83V21.67a.52.52,0,0,0,.52.53ZM4.74,1.05h1V5.7a.51.51,0,0,1-.5.5.5.5,0,0,1-.5-.5V1.05Zm-1.05,2V5.7a1.55,1.55,0,0,0,3.1,0V3L8.52,4.58a.9.9,0,0,1,.29.67V9.41A15.77,15.77,0,0,1,4.38,14a11.25,11.25,0,0,1-2.65,1.3V7.83a6.78,6.78,0,0,1,2-4.76Z"/><path class="cls-1" d="M21.09,32.47l0,0a3,3,0,0,0-.46-.63,4.91,4.91,0,0,0-3-1.27l-.49-.08a11.3,11.3,0,0,1-5.38-1.8,8.49,8.49,0,0,1-1.45-2.09,6.28,6.28,0,0,0-.42-.7V16.16a.53.53,0,0,0-1.06,0v9.37a1.58,1.58,0,0,0-.34.13l-.22.13c-.86.54-2.88,1.78-5.95-.33a1.09,1.09,0,0,0-.57-.2V23.78a.53.53,0,0,0-.53-.53.52.52,0,0,0-.52.53v2s0,0,0,0c-.56.91-.9,4.57-.45,6.54a1,1,0,0,0,.13.33,9,9,0,0,0-.08,2.68.53.53,0,0,0,.52.45H6.12a.52.52,0,0,0,.52-.53v-.83a11.2,11.2,0,0,1,1,.53,4.94,4.94,0,0,0,3,.83h7.69a2.89,2.89,0,0,0,2.82-1.49A2.13,2.13,0,0,0,21.09,32.47ZM8.8,26.69,9,26.57a.1.1,0,0,1,.09,0c.06.08.19.31.3.5a8.64,8.64,0,0,0,1.72,2.41,12.32,12.32,0,0,0,5.87,2l.48.07a3.94,3.94,0,0,1,2.4,1,1.34,1.34,0,0,1,.11.14,2.32,2.32,0,0,1-1.6.5H10.67a4,4,0,0,1-2.5-.68A10.89,10.89,0,0,0,7,31.85,17.57,17.57,0,0,0,1.11,30.6H1.06a16.59,16.59,0,0,1,.05-1.84,8,8,0,0,1,.44-2.41.09.09,0,0,1,.07,0,.08.08,0,0,1,.08,0c3.64,2.51,6.16.95,7.1.37ZM1.26,34.74a8,8,0,0,1,.06-1.51,16.31,16.31,0,0,1,4.27.8v.71Zm17.1,0H10.67a4,4,0,0,1-2.5-.67A10.75,10.75,0,0,0,7,33.43l-.43-.17a16.71,16.71,0,0,0-5.21-1.08.09.09,0,0,1-.08,0v0c0-.14-.06-.3-.08-.46a16.65,16.65,0,0,1,5.39,1.16,9.91,9.91,0,0,1,1.1.58,5,5,0,0,0,3,.82h7.69a3.75,3.75,0,0,0,1.91-.47l-.05.15a1.92,1.92,0,0,1-1.86.85Z"/></g></g></svg>