<svg xmlns="http://www.w3.org/2000/svg" viewBox="0 0 26.85 29.29"><defs><style>.cls-1{fill:#f8f0e1;}</style></defs><title>btn-icon-nacionalidad</title><g id="Capa_2" data-name="Capa 2"><g id="Content"><path class="cls-1" d="M21.58,12.2l5.18-7.53a.48.48,0,0,0,0-.5.48.48,0,0,0-.43-.26H11.72V2a.49.49,0,0,0-.49-.49H1v-1a.49.49,0,0,0-1,0V28.8a.49.49,0,0,0,1,0V16.6H6.36a2.41,2.41,0,0,0-.5,1.46A2.44,2.44,0,0,0,8.3,20.5H26.36a.48.48,0,0,0,.43-.26.48.48,0,0,0,0-.5ZM1,2.44h9.76V15.62H1ZM8.3,19.53a1.47,1.47,0,1,1,0-2.93h2.93a.49.49,0,0,0,.49-.49V4.88H25.43l-4.84,7.05a.47.47,0,0,0,0,.55l4.84,7.05Z"/></g></g></svg>