<svg xmlns="http://www.w3.org/2000/svg" viewBox="0 0 15.86 14.02"><defs><style>.cls-1{fill:#fff;}</style></defs><title>icon-audio</title><g id="Capa_2" data-name="Capa 2"><g id="Content"><path class="cls-1" d="M8.66.12a.91.91,0,0,0-.94,0l0,0L3.55,3.66H.3A.31.31,0,0,0,0,4v5.8A.29.29,0,0,0,.09,10a.29.29,0,0,0,.21.09H3.54l4.13,3.79a.1.1,0,0,0,0,0A.91.91,0,0,0,8.2,14a1,1,0,0,0,1-1V1A1,1,0,0,0,8.66.12ZM8.54,13.06a.35.35,0,0,1-.18.31.32.32,0,0,1-.31,0L4,9.62V8.23a.29.29,0,0,0-.3-.3.3.3,0,0,0-.31.3V9.45H.61V4.27H3.35V5.49a.3.3,0,0,0,.31.3.29.29,0,0,0,.3-.3V4.11L8.05.65a.33.33,0,0,1,.31,0A.37.37,0,0,1,8.54,1Z"/><path class="cls-1" d="M11.83,1.24a.3.3,0,0,0-.39.19.3.3,0,0,0,.19.38,5.33,5.33,0,0,1,0,10.1.29.29,0,0,0-.19.38.3.3,0,0,0,.29.21.2.2,0,0,0,.1,0,5.94,5.94,0,0,0,0-11.24Z"/><path class="cls-1" d="M13.12,6.86a4.13,4.13,0,0,0-3-3.95.29.29,0,0,0-.38.21.29.29,0,0,0,.21.37,3.51,3.51,0,0,1,0,6.74.29.29,0,0,0-.21.37.3.3,0,0,0,.29.22h.09A4.13,4.13,0,0,0,13.12,6.86Z"/></g></g></svg>