<svg xmlns="http://www.w3.org/2000/svg" viewBox="0 0 31.54 31.54"><defs><style>.cls-1{fill:#80a8a3;}.cls-2{fill:#fff;}</style></defs><title>btn-izquierda-hover</title><g id="Capa_2" data-name="Capa 2"><g id="Content"><path class="cls-1" d="M31.54,15.77A15.77,15.77,0,1,1,15.77,0,15.77,15.77,0,0,1,31.54,15.77"/><path class="cls-2" d="M5.53,16.14,15.87,5.8a.67.67,0,0,1,1,0,.69.69,0,0,1,0,1L7.45,16.14l9.38,9.37a.7.7,0,0,1,0,1,.69.69,0,0,1-1,0Z"/><path class="cls-2" d="M5.81,16.14a.67.67,0,0,1,.68-.68H25a.68.68,0,0,1,0,1.36H6.49A.68.68,0,0,1,5.81,16.14Z"/></g></g></svg>