<svg xmlns="http://www.w3.org/2000/svg" viewBox="0 0 15.95 16.71">
    <defs>
        <style>
            .cls-1 {
                fill: #80a8a3;
            }

            .btn-nav-mapa:hover img .cls-1 {
                fill: #FFE7B5;
            }

        </style>
    </defs>
    <title>btn-flecha-der</title>
    <g id="Capa_2" data-name="Capa 2">
        <g id="Content">
            <path class="cls-1" d="M16,8.35l-8.19,8.2a.54.54,0,0,1-.76,0,.52.52,0,0,1,0-.76l7.43-7.44L7,.92A.52.52,0,0,1,7,.16a.54.54,0,0,1,.76,0Z" />
            <path class="cls-1" d="M15.73,8.35a.54.54,0,0,1-.54.54H.54A.54.54,0,0,1,0,8.35a.54.54,0,0,1,.54-.54H15.19A.54.54,0,0,1,15.73,8.35Z" />
        </g>
    </g>
</svg>
