<svg xmlns="http://www.w3.org/2000/svg" viewBox="0 0 189.51 38"><defs><style>.cls-1{fill:#185557;}.cls-2{fill:#b93032;}.cls-3{fill:#fff;}</style></defs><title>btn-entrar</title><g id="Capa_2" data-name="Capa 2"><g id="Content"><path class="cls-1" d="M23.78,0s0,4.62-4.62,4.62V33.38s4.62,0,4.62,4.62H184.89s0-4.62,4.62-4.62V4.62s-4.62,0-4.62-4.62Z"/><path class="cls-2" d="M31.54,18.91A15.77,15.77,0,1,1,15.77,3.14,15.77,15.77,0,0,1,31.54,18.91"/><path class="cls-3" d="M16,28.61,5.61,18.27a.68.68,0,1,1,1-1L16,26.68l9.37-9.38a.68.68,0,0,1,1,1Z"/><path class="cls-3" d="M16,28.33a.68.68,0,0,1-.68-.68V9.16a.68.68,0,0,1,1.36,0V27.65A.69.69,0,0,1,16,28.33Z"/></g></g></svg>