<svg xmlns="http://www.w3.org/2000/svg" viewBox="0 0 243.13 38"><defs><style>.cls-1{fill:#185557;}.cls-2{fill:#c23032;}.cls-3{fill:#fff;}</style></defs><title>btn-light-normal</title><g id="Capa_2" data-name="Capa 2"><g id="Content"><path class="cls-1" d="M24.58,0s0,4.62-5.42,4.62V33.38s5.42,0,5.42,4.62H237.7s0-4.62,5.43-4.62V4.62s-5.43,0-5.43-4.62Z"/><path class="cls-2" d="M31.54,18.91A15.77,15.77,0,1,1,15.77,3.14,15.77,15.77,0,0,1,31.54,18.91"/><path class="cls-3" d="M26,18.54,15.67,28.88a.68.68,0,0,1-1-1l9.37-9.38L14.71,9.17a.68.68,0,1,1,1-1Z"/><path class="cls-3" d="M25.73,18.54a.67.67,0,0,1-.68.68H6.56a.68.68,0,1,1,0-1.36H25.05A.68.68,0,0,1,25.73,18.54Z"/></g></g></svg>