<svg xmlns="http://www.w3.org/2000/svg" viewBox="0 0 94.9 29.64"><defs><style>.cls-1{fill:#185557;}.cls-2{fill:#c23032;}.cls-3{fill:#fff;}</style></defs><title>btn-desertar</title><g id="Capa_2" data-name="Capa 2"><g id="Content"><path class="cls-1" d="M18.55,0s0,3.61-3.61,3.61V26s3.61,0,3.61,3.6H91.3s0-3.6,3.6-3.6V3.61A3.53,3.53,0,0,1,91.3,0Z"/><path class="cls-2" d="M24.6,14.75A12.3,12.3,0,1,1,12.3,2.45a12.3,12.3,0,0,1,12.3,12.3"/><path class="cls-3" d="M20.29,14.46l-8.07,8.07a.53.53,0,0,1-.75-.75l7.32-7.32L11.47,7.15a.53.53,0,0,1,.75-.75Z"/><path class="cls-3" d="M20.07,14.46a.53.53,0,0,1-.53.53H5.12a.53.53,0,0,1-.53-.53.53.53,0,0,1,.53-.53H19.54A.53.53,0,0,1,20.07,14.46Z"/></g></g></svg>