<svg xmlns="http://www.w3.org/2000/svg" viewBox="0 0 300 80"><title>altimetria</title><g id="Capa_2" data-name="Capa 2"><g id="Capa_2-2" data-name="Capa 2"><polygon points="300 70.68 234.54 69.13 231.32 66.41 224.5 69.52 215.66 69.9 211.25 68.35 202.41 67.57 197.99 66.41 195.18 68.35 193.17 64.85 189.96 67.57 187.15 64.85 183.53 66.02 180.72 58.64 177.91 66.02 175.9 58.64 175.1 61.36 171.89 45.44 170.28 54.76 169.48 49.71 167.07 55.53 165.06 47.77 163.85 44.27 160.24 43.11 159.44 33.4 157.83 22.52 156.22 29.52 155.42 24.85 153.81 22.52 151.81 7.77 150.6 0 149.8 5.83 148.19 5.83 145.78 26.8 144.58 26.8 143.78 30.29 143.78 19.03 140.56 25.24 139.36 13.98 138.15 16.7 137.35 14.37 135.34 23.3 133.74 12.43 132.13 17.48 130.92 11.65 128.92 21.75 127.71 16.31 126.1 26.41 123.29 22.52 121.69 24.47 120.48 21.75 119.28 26.02 117.67 12.04 116.06 21.36 113.66 22.14 110.44 19.03 108.83 14.76 106.83 19.03 104.82 17.86 103.21 23.3 102.01 21.36 100.8 24.08 92.37 23.69 92.37 21.75 91.57 22.91 89.96 17.86 87.15 24.08 83.53 23.69 81.93 20.19 81.12 24.08 77.11 24.08 75.5 17.48 73.9 19.42 72.29 18.25 71.08 20.19 68.67 18.64 66.67 20.58 64.26 17.48 63.45 15.53 61.45 17.09 61.04 20.19 57.83 16.31 57.03 14.76 55.42 16.7 54.62 19.03 53.01 15.53 49 20.97 46.99 15.15 45.38 18.25 44.18 15.92 42.17 18.64 39.76 19.42 35.34 21.75 33.73 16.7 32.53 19.42 31.32 14.37 29.32 19.81 28.51 17.09 26.51 22.52 19.28 22.52 18.07 21.36 15.66 22.91 3.61 22.52 2.01 20.97 0 21.75 0 80 300 80 300 70.68"/></g></g></svg>